<svg xmlns="http://www.w3.org/2000/svg" height="40" viewBox="0 96 960 960" width="40"><path d="M456.36 765.999h50.255V536H456.36v229.999Zm23.628-295.485q12.255 0 20.595-8.14 8.34-8.139 8.34-20.373 0-12.543-8.328-20.938-8.328-8.394-20.583-8.394-12.512 0-20.723 8.394-8.212 8.395-8.212 20.938 0 12.234 8.328 20.373 8.328 8.14 20.583 8.14Zm.256 485.485q-78.915 0-147.999-29.92-69.084-29.92-120.731-81.544-51.647-51.624-81.58-120.727-29.933-69.103-29.933-148.074 0-78.715 29.92-147.978 29.92-69.262 81.544-120.575 51.624-51.314 120.727-81.247 69.103-29.933 148.074-29.933 78.715 0 147.978 29.92 69.262 29.92 120.575 81.21 51.314 51.291 81.247 120.629 29.933 69.337 29.933 147.996 0 78.915-29.92 147.999-29.92 69.084-81.21 120.608-51.291 51.524-120.629 81.58-69.337 30.056-147.996 30.056Zm.089-50.255q137.462 0 233.436-96.18 95.975-96.179 95.975-233.897 0-137.462-95.85-233.436Q618.045 246.256 480 246.256q-137.385 0-233.564 95.85-96.18 95.849-96.18 233.894 0 137.385 96.18 233.564 96.179 96.18 233.897 96.18ZM480 576Z"/></svg>